<?xml version="1.0" encoding="utf-8"?>
<!-- Generator: Adobe Illustrator 17.1.0, SVG Export Plug-In . SVG Version: 6.00 Build 0)  -->
<!DOCTYPE svg PUBLIC "-//W3C//DTD SVG 1.1//EN" "http://www.w3.org/Graphics/SVG/1.1/DTD/svg11.dtd">
<svg version="1.1" id="Logo" xmlns="http://www.w3.org/2000/svg" xmlns:xlink="http://www.w3.org/1999/xlink" x="0px" y="0px"
	 viewBox="0 0 349.6 51" enable-background="new 0 0 349.6 51" xml:space="preserve">
<g>
	<g>
		<path fill="#56565A" d="M54.7,13.3v17h-3v-17h-4.6v-2.8h12.1v2.8H54.7z"/>
		<path fill="#56565A" d="M66.8,18.2h8.6v-7.8h3v19.8h-3V21h-8.6v9.3h-3V10.5h3V18.2z"/>
		<path fill="#56565A" d="M95.6,13.3h-7.9V18h7.7v2.8h-7.7v6.6h7.9v2.8H84.6V10.5h10.9V13.3z"/>
		<path fill="#56565A" d="M110.1,20.3c0-2.8,1-5.2,3.1-7.2c2-2,4.5-3,7.3-3c2.8,0,5.2,1,7.3,3c2,2,3,4.5,3,7.3c0,2.8-1,5.3-3.1,7.2
			c-2,2-4.5,3-7.4,3c-2.6,0-4.9-0.9-6.9-2.7C111.2,26,110.1,23.5,110.1,20.3z M113.1,20.3c0,2.2,0.7,4,2.2,5.4
			c1.5,1.4,3.2,2.1,5.1,2.1c2.1,0,3.8-0.7,5.3-2.2c1.4-1.4,2.1-3.2,2.1-5.3c0-2.1-0.7-3.9-2.1-5.3c-1.4-1.4-3.1-2.2-5.2-2.2
			c-2.1,0-3.8,0.7-5.2,2.2C113.8,16.5,113.1,18.2,113.1,20.3z"/>
		<path fill="#56565A" d="M138.5,22.2v8.1h-3V10.5h3.4c1.7,0,2.9,0.1,3.8,0.3c0.9,0.2,1.6,0.7,2.3,1.3c1.1,1.1,1.7,2.5,1.7,4.2
			c0,1.8-0.6,3.3-1.8,4.3c-1.2,1.1-2.9,1.6-4.9,1.6H138.5z M138.5,19.5h1.1c2.7,0,4.1-1.1,4.1-3.2c0-2-1.4-3.1-4.2-3.1h-1V19.5z"/>
		<path fill="#56565A" d="M161.9,13.3h-7.9V18h7.7v2.8h-7.7v6.6h7.9v2.8h-10.9V10.5h10.9V13.3z"/>
		<path fill="#56565A" d="M167.9,30.3V9.1l14.5,15.1V10.5h3v21l-14.5-15.1v13.9H167.9z"/>
		<path fill="#56565A" d="M212,13.4l-2.4,1.4c-0.5-0.8-0.9-1.3-1.3-1.5c-0.4-0.3-1-0.4-1.7-0.4c-0.8,0-1.5,0.2-2.1,0.7
			c-0.5,0.5-0.8,1-0.8,1.7c0,1,0.7,1.7,2.2,2.3l2,0.8c1.6,0.7,2.8,1.5,3.5,2.4c0.7,0.9,1.1,2.1,1.1,3.4c0,1.8-0.6,3.3-1.8,4.5
			c-1.2,1.2-2.7,1.8-4.6,1.8c-1.7,0-3.1-0.5-4.3-1.5c-1.1-1-1.8-2.5-2.1-4.3l3-0.7c0.1,1.2,0.4,2,0.7,2.4c0.6,0.9,1.5,1.3,2.7,1.3
			c0.9,0,1.7-0.3,2.3-0.9c0.6-0.6,0.9-1.4,0.9-2.4c0-0.4-0.1-0.7-0.2-1.1c-0.1-0.3-0.3-0.6-0.5-0.9c-0.2-0.3-0.5-0.5-0.9-0.8
			c-0.4-0.2-0.8-0.5-1.3-0.7l-1.9-0.8c-2.7-1.1-4.1-2.8-4.1-5c0-1.5,0.6-2.7,1.7-3.7c1.1-1,2.5-1.5,4.2-1.5
			C209,10.1,210.8,11.2,212,13.4z"/>
		<path fill="#56565A" d="M223.9,13.3v17h-3v-17h-4.6v-2.8h12.1v2.8H223.9z"/>
		<path fill="#56565A" d="M243.6,25.5h-8.5l-2.2,4.8h-3.2l9.8-21.1l9.5,21.1h-3.3L243.6,25.5z M242.4,22.7l-2.9-6.7l-3.1,6.7H242.4z
			"/>
		<path fill="#56565A" d="M252.9,30.3V9.1l14.5,15.1V10.5h3v21l-14.5-15.1v13.9H252.9z"/>
		<path fill="#56565A" d="M276.6,30.3V10.5h4.2c2,0,3.6,0.2,4.7,0.6c1.2,0.4,2.4,1,3.4,2c2,1.9,3.1,4.3,3.1,7.4c0,3-1.1,5.5-3.2,7.4
			c-1.1,0.9-2.2,1.6-3.4,2c-1.1,0.4-2.7,0.6-4.7,0.6H276.6z M279.6,27.5h1.3c1.3,0,2.5-0.1,3.4-0.4c0.9-0.3,1.7-0.8,2.4-1.4
			c1.5-1.3,2.2-3.1,2.2-5.2c0-2.2-0.7-3.9-2.2-5.3c-1.3-1.2-3.2-1.8-5.8-1.8h-1.3V27.5z"/>
		<path fill="#56565A" d="M307.3,25.5h-8.5l-2.2,4.8h-3.2l9.8-21.1l9.5,21.1h-3.3L307.3,25.5z M306.1,22.7l-2.9-6.7l-3.1,6.7H306.1z
			"/>
		<path fill="#56565A" d="M323.4,21.8l6.1,8.4h-3.7l-5.7-8.1h-0.5v8.1h-3V10.5h3.5c2.6,0,4.5,0.5,5.7,1.5c1.3,1.1,1.9,2.5,1.9,4.3
			c0,1.4-0.4,2.6-1.2,3.6C325.8,20.9,324.7,21.6,323.4,21.8z M319.7,19.6h1c2.8,0,4.2-1.1,4.2-3.3c0-2-1.4-3-4.1-3h-1.1V19.6z"/>
		<path fill="#56565A" d="M334.3,30.3V10.5h4.2c2,0,3.6,0.2,4.7,0.6c1.2,0.4,2.4,1,3.4,2c2,1.9,3.1,4.3,3.1,7.4c0,3-1.1,5.5-3.2,7.4
			c-1.1,0.9-2.2,1.6-3.4,2c-1.1,0.4-2.7,0.6-4.7,0.6H334.3z M337.3,27.5h1.3c1.3,0,2.5-0.1,3.4-0.4c0.9-0.3,1.7-0.8,2.4-1.4
			c1.5-1.3,2.2-3.1,2.2-5.2c0-2.2-0.7-3.9-2.2-5.3c-1.3-1.2-3.2-1.8-5.8-1.8h-1.3V27.5z"/>
	</g>
	<g>
		<g>
			<g>
				<g>
					<g>
						<rect x="0" y="0" fill="#C33B32" width="32.6" height="3.7"/>
						<polygon fill="#C33B32" points="32.6,4.4 16.7,4.4 16.7,32.8 32.6,40.7 						"/>
						<polygon fill="#C33B32" points="15.9,32.8 15.9,4.4 0,4.4 0,40.7 						"/>
					</g>
					<g>
						<path fill="#FFFFFF" d="M10.4,13.3c0.7,0.4,1.2,1,1.5,1.8c0.4,0.8,0.5,1.8,0.5,2.9c0,1.1-0.2,2.1-0.5,2.9
							c-0.4,0.8-0.9,1.4-1.6,1.8c-0.7,0.4-1.5,0.6-2.4,0.6c-0.9,0-1.7-0.2-2.4-0.6c-0.7-0.4-1.2-1-1.6-1.8c-0.4-0.8-0.5-1.8-0.5-2.9
							c0-1.1,0.2-2.1,0.5-2.9c0.4-0.8,0.9-1.4,1.6-1.8c0.7-0.4,1.5-0.6,2.4-0.6C9,12.6,9.8,12.8,10.4,13.3z M6.2,15.1
							c-0.4,0.6-0.6,1.6-0.6,2.9c0,2.6,0.8,3.8,2.4,3.8c0.8,0,1.4-0.3,1.8-0.9c0.4-0.6,0.6-1.6,0.6-2.9c0-1.3-0.2-2.3-0.6-2.9
							c-0.4-0.6-1-0.9-1.8-0.9C7.3,14.1,6.7,14.5,6.2,15.1z"/>
						<path fill="#FFFFFF" d="M26.4,12.9c0.5,0.2,1,0.5,1.5,1l-1,1.1c-0.4-0.3-0.7-0.5-1.1-0.7c-0.4-0.1-0.8-0.2-1.2-0.2
							c-0.5,0-0.9,0.1-1.1,0.3c-0.3,0.2-0.4,0.5-0.4,0.9c0,0.3,0.1,0.5,0.2,0.6c0.1,0.2,0.3,0.3,0.6,0.5c0.3,0.2,0.7,0.3,1.3,0.5
							c1,0.3,1.8,0.7,2.3,1.2c0.5,0.5,0.8,1.2,0.8,2.1c0,0.6-0.2,1.2-0.5,1.6c-0.3,0.5-0.8,0.8-1.3,1.1c-0.6,0.3-1.3,0.4-2.1,0.4
							c-0.8,0-1.5-0.1-2.1-0.4c-0.6-0.2-1.2-0.6-1.6-1l1-1.2c0.7,0.7,1.6,1.1,2.6,1.1c0.6,0,1-0.1,1.4-0.4c0.3-0.3,0.5-0.6,0.5-1.1
							c0-0.3-0.1-0.5-0.2-0.7c-0.1-0.2-0.3-0.4-0.6-0.5c-0.3-0.1-0.7-0.3-1.2-0.5c-1.1-0.3-1.9-0.8-2.4-1.2
							c-0.5-0.5-0.7-1.1-0.7-1.9c0-0.6,0.2-1.1,0.4-1.5c0.3-0.4,0.7-0.8,1.2-1c0.5-0.2,1.1-0.4,1.8-0.4
							C25.3,12.6,25.9,12.7,26.4,12.9z"/>
					</g>
				</g>
			</g>
		</g>
	</g>
</g>
</svg>
