<?xml version="1.0" encoding="utf-8"?>
<!-- Generator: Adobe Illustrator 17.1.0, SVG Export Plug-In . SVG Version: 6.00 Build 0)  -->
<!DOCTYPE svg PUBLIC "-//W3C//DTD SVG 1.1//EN" "http://www.w3.org/Graphics/SVG/1.1/DTD/svg11.dtd">
<svg version="1.1" id="Logo" xmlns="http://www.w3.org/2000/svg" xmlns:xlink="http://www.w3.org/1999/xlink" x="0px" y="0px"
	 viewBox="0 0 349.6 51" enable-background="new 0 0 349.6 51" xml:space="preserve">
<g>
	<g>
		<path fill="#56565A" d="M54.7,13.3v17h-3v-17h-4.6v-2.8h12.1v2.8H54.7z"/>
		<path fill="#56565A" d="M66.8,18.2h8.6v-7.8h3v19.8h-3V21h-8.6v9.3h-3V10.5h3V18.2z"/>
		<path fill="#56565A" d="M95.6,13.3h-7.9V18h7.7v2.8h-7.7v6.6h7.9v2.8H84.6V10.5h10.9V13.3z"/>
		<path fill="#56565A" d="M110.1,20.3c0-2.8,1-5.2,3.1-7.2c2-2,4.5-3,7.3-3c2.8,0,5.2,1,7.3,3c2,2,3,4.5,3,7.3c0,2.8-1,5.3-3.1,7.2
			c-2,2-4.5,3-7.4,3c-2.6,0-4.9-0.9-6.9-2.7C111.2,26,110.1,23.5,110.1,20.3z M113.1,20.3c0,2.2,0.7,4,2.2,5.4
			c1.5,1.4,3.2,2.1,5.1,2.1c2.1,0,3.8-0.7,5.3-2.2c1.4-1.4,2.1-3.2,2.1-5.3c0-2.1-0.7-3.9-2.1-5.3c-1.4-1.4-3.1-2.2-5.2-2.2
			c-2.1,0-3.8,0.7-5.2,2.2C113.8,16.5,113.1,18.2,113.1,20.3z"/>
		<path fill="#56565A" d="M138.5,22.2v8.1h-3V10.5h3.4c1.7,0,2.9,0.1,3.8,0.3c0.9,0.2,1.6,0.7,2.3,1.3c1.1,1.1,1.7,2.5,1.7,4.2
			c0,1.8-0.6,3.3-1.8,4.3c-1.2,1.1-2.9,1.6-4.9,1.6H138.5z M138.5,19.5h1.1c2.7,0,4.1-1.1,4.1-3.2c0-2-1.4-3.1-4.2-3.1h-1V19.5z"/>
		<path fill="#56565A" d="M161.9,13.3h-7.9V18h7.7v2.8h-7.7v6.6h7.9v2.8h-10.9V10.5h10.9V13.3z"/>
		<path fill="#56565A" d="M167.9,30.3V9.1l14.5,15.1V10.5h3v21l-14.5-15.1v13.9H167.9z"/>
		<path fill="#56565A" d="M212,13.4l-2.4,1.4c-0.5-0.8-0.9-1.3-1.3-1.5c-0.4-0.3-1-0.4-1.7-0.4c-0.8,0-1.5,0.2-2.1,0.7
			c-0.5,0.5-0.8,1-0.8,1.7c0,1,0.7,1.7,2.2,2.3l2,0.8c1.6,0.7,2.8,1.5,3.5,2.4c0.7,0.9,1.1,2.1,1.1,3.4c0,1.8-0.6,3.3-1.8,4.5
			c-1.2,1.2-2.7,1.8-4.6,1.8c-1.7,0-3.1-0.5-4.3-1.5c-1.1-1-1.8-2.5-2.1-4.3l3-0.7c0.1,1.2,0.4,2,0.7,2.4c0.6,0.9,1.5,1.3,2.7,1.3
			c0.9,0,1.7-0.3,2.3-0.9c0.6-0.6,0.9-1.4,0.9-2.4c0-0.4-0.1-0.7-0.2-1.1c-0.1-0.3-0.3-0.6-0.5-0.9c-0.2-0.3-0.5-0.5-0.9-0.8
			c-0.4-0.2-0.8-0.5-1.3-0.7l-1.9-0.8c-2.7-1.1-4.1-2.8-4.1-5c0-1.5,0.6-2.7,1.7-3.7c1.1-1,2.5-1.5,4.2-1.5
			C209,10.1,210.8,11.2,212,13.4z"/>
		<path fill="#56565A" d="M223.9,13.3v17h-3v-17h-4.6v-2.8h12.1v2.8H223.9z"/>
		<path fill="#56565A" d="M243.6,25.5h-8.5l-2.2,4.8h-3.2l9.8-21.1l9.5,21.1h-3.3L243.6,25.5z M242.4,22.7l-2.9-6.7l-3.1,6.7H242.4z
			"/>
		<path fill="#56565A" d="M252.9,30.3V9.1l14.5,15.1V10.5h3v21l-14.5-15.1v13.9H252.9z"/>
		<path fill="#56565A" d="M276.6,30.3V10.5h4.2c2,0,3.6,0.2,4.7,0.6c1.2,0.4,2.4,1,3.4,2c2,1.9,3.1,4.3,3.1,7.4c0,3-1.1,5.5-3.2,7.4
			c-1.1,0.9-2.2,1.6-3.4,2c-1.1,0.4-2.7,0.6-4.7,0.6H276.6z M279.6,27.5h1.3c1.3,0,2.5-0.1,3.4-0.4c0.9-0.3,1.7-0.8,2.4-1.4
			c1.5-1.3,2.2-3.1,2.2-5.2c0-2.2-0.7-3.9-2.2-5.3c-1.3-1.2-3.2-1.8-5.8-1.8h-1.3V27.5z"/>
		<path fill="#56565A" d="M307.3,25.5h-8.5l-2.2,4.8h-3.2l9.8-21.1l9.5,21.1h-3.3L307.3,25.5z M306.1,22.7l-2.9-6.7l-3.1,6.7H306.1z
			"/>
		<path fill="#56565A" d="M323.4,21.8l6.1,8.4h-3.7l-5.7-8.1h-0.5v8.1h-3V10.5h3.5c2.6,0,4.5,0.5,5.7,1.5c1.3,1.1,1.9,2.5,1.9,4.3
			c0,1.4-0.4,2.6-1.2,3.6C325.8,20.9,324.7,21.6,323.4,21.8z M319.7,19.6h1c2.8,0,4.2-1.1,4.2-3.3c0-2-1.4-3-4.1-3h-1.1V19.6z"/>
		<path fill="#56565A" d="M334.3,30.3V10.5h4.2c2,0,3.6,0.2,4.7,0.6c1.2,0.4,2.4,1,3.4,2c2,1.9,3.1,4.3,3.1,7.4c0,3-1.1,5.5-3.2,7.4
			c-1.1,0.9-2.2,1.6-3.4,2c-1.1,0.4-2.7,0.6-4.7,0.6H334.3z M337.3,27.5h1.3c1.3,0,2.5-0.1,3.4-0.4c0.9-0.3,1.7-0.8,2.4-1.4
			c1.5-1.3,2.2-3.1,2.2-5.2c0-2.2-0.7-3.9-2.2-5.3c-1.3-1.2-3.2-1.8-5.8-1.8h-1.3V27.5z"/>
	</g>
	<g>
		<g>
			<g>
				<g>
					<g>
						<rect x="0" y="0" fill="#C33B32" width="32.6" height="3.7"/>
						<polygon fill="#C33B32" points="32.6,4.4 16.7,4.4 16.7,32.8 32.6,40.7 						"/>
						<polygon fill="#C33B32" points="15.9,32.8 15.9,4.4 0,4.4 0,40.7 						"/>
					</g>
					<g>
						<path fill="#FFFFFF" d="M10.4,13.3c0.7,0.4,1.2,1,1.5,1.8c0.4,0.8,0.5,1.8,0.5,2.9c0,1.1-0.2,2.1-0.5,2.9
							c-0.4,0.8-0.9,1.4-1.6,1.8c-0.7,0.4-1.5,0.6-2.4,0.6c-0.9,0-1.7-0.2-2.4-0.6c-0.7-0.4-1.2-1-1.6-1.8c-0.4-0.8-0.5-1.8-0.5-2.9
							c0-1.1,0.2-2.1,0.5-2.9c0.4-0.8,0.9-1.4,1.6-1.8c0.7-0.4,1.5-0.6,2.4-0.6C9,12.6,9.8,12.8,10.4,13.3z M6.2,15.1
							c-0.4,0.6-0.6,1.6-0.6,2.9c0,2.6,0.8,3.8,2.4,3.8c0.8,0,1.4-0.3,1.8-0.9c0.4-0.6,0.6-1.6,0.6-2.9c0-1.3-0.2-2.3-0.6-2.9
							c-0.4-0.6-1-0.9-1.8-0.9C7.3,14.1,6.7,14.5,6.2,15.1z"/>
						<path fill="#FFFFFF" d="M26.4,12.9c0.5,0.2,1,0.5,1.5,1l-1,1.1c-0.4-0.3-0.7-0.5-1.1-0.7c-0.4-0.1-0.8-0.2-1.2-0.2
							c-0.5,0-0.9,0.1-1.1,0.3c-0.3,0.2-0.4,0.5-0.4,0.9c0,0.3,0.1,0.5,0.2,0.6c0.1,0.2,0.3,0.3,0.6,0.5c0.3,0.2,0.7,0.3,1.3,0.5
							c1,0.3,1.8,0.7,2.3,1.2c0.5,0.5,0.8,1.2,0.8,2.1c0,0.6-0.2,1.2-0.5,1.6c-0.3,0.5-0.8,0.8-1.3,1.1c-0.6,0.3-1.3,0.4-2.1,0.4
							c-0.8,0-1.5-0.1-2.1-0.4c-0.6-0.2-1.2-0.6-1.6-1l1-1.2c0.7,0.7,1.6,1.1,2.6,1.1c0.6,0,1-0.1,1.4-0.4c0.3-0.3,0.5-0.6,0.5-1.1
							c0-0.3-0.1-0.5-0.2-0.7c-0.1-0.2-0.3-0.4-0.6-0.5c-0.3-0.1-0.7-0.3-1.2-0.5c-1.1-0.3-1.9-0.8-2.4-1.2
							c-0.5-0.5-0.7-1.1-0.7-1.9c0-0.6,0.2-1.1,0.4-1.5c0.3-0.4,0.7-0.8,1.2-1c0.5-0.2,1.1-0.4,1.8-0.4
							C25.3,12.6,25.9,12.7,26.4,12.9z"/>
					</g>
				</g>
			</g>
		</g>
	</g>
	<g>
		<path fill="#56565A" d="M230.8,39.7c0.6,0.5,0.9,1.2,0.9,2.1c0,1-0.3,1.7-1,2.2c-0.6,0.5-1.5,0.7-2.6,0.7H227v3.4h-1.1V39h2.3
			C229.4,39,230.2,39.3,230.8,39.7z M229.9,43.4c0.4-0.3,0.6-0.8,0.6-1.6c0-0.7-0.2-1.2-0.6-1.5c-0.4-0.3-1-0.5-1.7-0.5H227v3.9h1.2
			C229,43.9,229.5,43.7,229.9,43.4z"/>
		<path fill="#56565A" d="M237.6,48.2l-0.1-1.1c-0.3,0.4-0.6,0.8-0.9,1c-0.4,0.2-0.8,0.3-1.3,0.3c-0.6,0-1.1-0.2-1.4-0.6
			c-0.3-0.4-0.5-0.9-0.5-1.6v-5h1.1v4.9c0,0.5,0.1,0.9,0.3,1.1c0.2,0.2,0.5,0.3,0.9,0.3c0.7,0,1.3-0.4,1.8-1.2v-5h1.1v7H237.6z"/>
		<path fill="#56565A" d="M245.9,42c0.5,0.6,0.7,1.5,0.7,2.7c0,0.7-0.1,1.4-0.3,1.9c-0.2,0.6-0.5,1-0.9,1.3
			c-0.4,0.3-0.9,0.5-1.5,0.5c-0.7,0-1.4-0.3-1.9-1l-0.1,0.8h-1v-9.9l1.1-0.1v3.9c0.5-0.7,1.2-1.1,2-1.1
			C244.8,41,245.5,41.3,245.9,42z M244.9,46.8c0.3-0.5,0.5-1.2,0.5-2.1c0-1.8-0.6-2.8-1.7-2.8c-0.7,0-1.2,0.4-1.7,1.1v3.5
			c0.2,0.3,0.4,0.5,0.7,0.7c0.3,0.2,0.6,0.3,0.9,0.3C244.2,47.5,244.6,47.3,244.9,46.8z"/>
		<path fill="#56565A" d="M249.7,47.3c0.1,0.1,0.2,0.1,0.4,0.1c0.2,0,0.3,0,0.5-0.1l0.3,0.8c-0.3,0.2-0.7,0.2-1,0.2
			c-0.4,0-0.8-0.1-1-0.4c-0.2-0.3-0.3-0.6-0.3-1.1v-8.5l1.1-0.1v8.6C249.6,47.1,249.7,47.2,249.7,47.3z"/>
		<path fill="#56565A" d="M254,38.1c0.1,0.1,0.2,0.3,0.2,0.5c0,0.2-0.1,0.4-0.2,0.6c-0.1,0.1-0.3,0.2-0.6,0.2
			c-0.2,0-0.4-0.1-0.6-0.2c-0.2-0.1-0.2-0.3-0.2-0.6c0-0.2,0.1-0.4,0.2-0.5c0.1-0.2,0.3-0.2,0.6-0.2C253.7,37.9,253.9,37.9,254,38.1
			z M252.9,48.2v-7h1.1v7H252.9z"/>
		<path fill="#56565A" d="M259.9,41.2c0.4,0.1,0.7,0.3,1.1,0.6l-0.5,0.7c-0.3-0.2-0.6-0.4-0.9-0.5c-0.3-0.1-0.6-0.1-0.9-0.1
			c-0.4,0-0.8,0.1-1,0.3c-0.2,0.2-0.4,0.4-0.4,0.7c0,0.3,0.1,0.5,0.3,0.7c0.2,0.2,0.6,0.3,1.2,0.5c0.8,0.2,1.4,0.5,1.7,0.8
			c0.4,0.3,0.6,0.8,0.6,1.4c0,0.7-0.3,1.2-0.8,1.6c-0.5,0.4-1.2,0.6-1.9,0.6c-1.1,0-1.9-0.3-2.6-0.9l0.6-0.7c0.6,0.5,1.2,0.7,2,0.7
			c0.5,0,0.8-0.1,1.1-0.3c0.3-0.2,0.4-0.5,0.4-0.8c0-0.3-0.1-0.5-0.2-0.6c-0.1-0.2-0.3-0.3-0.5-0.4c-0.2-0.1-0.6-0.2-1.1-0.4
			c-0.7-0.2-1.3-0.5-1.6-0.8c-0.3-0.3-0.5-0.8-0.5-1.3c0-0.4,0.1-0.7,0.3-1c0.2-0.3,0.5-0.5,0.9-0.7c0.4-0.2,0.8-0.3,1.3-0.3
			C259.1,41,259.5,41.1,259.9,41.2z"/>
		<path fill="#56565A" d="M267.9,41.6c0.4,0.4,0.5,0.9,0.5,1.6v5h-1.1v-4.9c0-0.5-0.1-0.9-0.3-1.1c-0.2-0.2-0.5-0.3-0.9-0.3
			c-0.4,0-0.7,0.1-1,0.3c-0.3,0.2-0.6,0.5-0.8,1v5h-1.1v-9.8l1.1-0.1v4c0.6-0.8,1.3-1.2,2.1-1.2C267,41,267.5,41.2,267.9,41.6z"/>
		<path fill="#56565A" d="M276.3,45.1h-4.5c0.1,0.8,0.3,1.4,0.6,1.8c0.3,0.4,0.8,0.6,1.4,0.6c0.3,0,0.7,0,0.9-0.1
			c0.3-0.1,0.6-0.3,0.9-0.5l0.5,0.7c-0.7,0.6-1.5,0.9-2.4,0.9c-1,0-1.7-0.3-2.3-1c-0.5-0.6-0.8-1.5-0.8-2.7c0-0.7,0.1-1.4,0.3-1.9
			c0.2-0.6,0.6-1,1-1.3c0.4-0.3,1-0.5,1.5-0.5c0.9,0,1.6,0.3,2.1,0.9c0.5,0.6,0.7,1.5,0.7,2.5C276.3,44.7,276.3,44.9,276.3,45.1z
			 M275.2,44.2c0-0.7-0.1-1.3-0.4-1.7c-0.3-0.4-0.7-0.6-1.3-0.6c-0.5,0-0.9,0.2-1.2,0.6c-0.3,0.4-0.5,1-0.5,1.8h3.4V44.2z"/>
		<path fill="#56565A" d="M283.6,48.2h-1l-0.1-1c-0.2,0.4-0.5,0.6-0.9,0.8c-0.3,0.2-0.7,0.3-1.2,0.3c-0.8,0-1.5-0.3-1.9-1
			c-0.5-0.7-0.7-1.5-0.7-2.7c0-0.7,0.1-1.4,0.3-1.9c0.2-0.6,0.5-1,0.9-1.3c0.4-0.3,0.9-0.5,1.5-0.5c0.7,0,1.4,0.3,1.9,0.9v-3.7
			l1.1,0.1V48.2z M281.7,47.2c0.3-0.2,0.5-0.5,0.8-0.8v-3.5c-0.2-0.3-0.5-0.5-0.7-0.7c-0.3-0.2-0.6-0.3-0.9-0.3
			c-0.6,0-1,0.2-1.3,0.7c-0.3,0.5-0.5,1.2-0.5,2.1c0,0.9,0.2,1.6,0.4,2.1c0.3,0.5,0.7,0.7,1.2,0.7C281.1,47.5,281.4,47.4,281.7,47.2
			z"/>
		<path fill="#56565A" d="M295.3,42c0.5,0.6,0.7,1.5,0.7,2.7c0,0.7-0.1,1.4-0.3,1.9c-0.2,0.6-0.5,1-1,1.3c-0.4,0.3-0.9,0.5-1.5,0.5
			c-0.7,0-1.4-0.3-1.9-1l-0.1,0.8h-1v-9.9l1.1-0.1v3.9c0.5-0.7,1.2-1.1,2-1.1C294.2,41,294.8,41.3,295.3,42z M294.3,46.8
			c0.3-0.5,0.5-1.2,0.5-2.1c0-1.8-0.6-2.8-1.7-2.8c-0.7,0-1.2,0.4-1.7,1.1v3.5c0.2,0.3,0.4,0.5,0.7,0.7c0.3,0.2,0.6,0.3,0.9,0.3
			C293.5,47.5,294,47.3,294.3,46.8z"/>
		<path fill="#56565A" d="M299.8,50.2c-0.5,0.5-1.2,0.7-2,0.9l-0.1-0.9c0.5-0.1,0.8-0.2,1.1-0.4c0.3-0.2,0.5-0.4,0.7-0.6
			c0.2-0.2,0.3-0.6,0.5-1h-0.4l-2.4-7h1.2l1.9,6.2l1.9-6.2h1.2l-2.4,7.1C300.6,49.1,300.3,49.7,299.8,50.2z"/>
		<path fill="#56565A" d="M315.8,48.2l-0.3-4.2c-0.1-1.7-0.2-3-0.3-3.8l-2.1,7h-1.1l-2.2-7c0,1.1-0.1,2.4-0.2,3.9l-0.3,4.1h-1.1
			L309,39h1.6l2,6.8l1.9-6.8h1.6l0.8,9.2H315.8z"/>
		<path fill="#56565A" d="M324,42c0.5,0.7,0.8,1.6,0.8,2.7c0,1.1-0.3,2-0.8,2.7c-0.6,0.7-1.3,1-2.3,1s-1.7-0.3-2.3-1
			c-0.5-0.7-0.8-1.5-0.8-2.7c0-1.1,0.3-2,0.8-2.7c0.5-0.7,1.3-1,2.3-1C322.7,41,323.4,41.3,324,42z M320.3,42.6
			c-0.3,0.5-0.5,1.2-0.5,2.1c0,0.9,0.2,1.6,0.5,2.1c0.3,0.5,0.8,0.7,1.4,0.7s1.1-0.2,1.4-0.7c0.3-0.5,0.5-1.2,0.5-2.1
			c0-0.9-0.2-1.6-0.5-2.1c-0.3-0.5-0.8-0.7-1.4-0.7C321.1,41.9,320.6,42.2,320.3,42.6z"/>
		<path fill="#56565A" d="M327,47.3h3.8l-0.1,0.9h-4.9v-0.8l3.7-5.2h-3.4v-1h4.7V42L327,47.3z"/>
		<path fill="#56565A" d="M333.8,38.1c0.1,0.1,0.2,0.3,0.2,0.5c0,0.2-0.1,0.4-0.2,0.6c-0.2,0.1-0.3,0.2-0.6,0.2
			c-0.2,0-0.4-0.1-0.6-0.2c-0.1-0.1-0.2-0.3-0.2-0.6c0-0.2,0.1-0.4,0.2-0.5c0.2-0.2,0.3-0.2,0.6-0.2
			C333.4,37.9,333.6,37.9,333.8,38.1z M332.6,48.2v-7h1.1v7H332.6z"/>
		<path fill="#56565A" d="M337.5,47.3c0.1,0.1,0.2,0.1,0.4,0.1c0.2,0,0.3,0,0.5-0.1l0.3,0.8c-0.3,0.2-0.7,0.2-1,0.2
			c-0.4,0-0.8-0.1-1-0.4c-0.2-0.3-0.3-0.6-0.3-1.1v-8.5l1.1-0.1v8.6C337.4,47.1,337.5,47.2,337.5,47.3z"/>
		<path fill="#56565A" d="M341.5,47.3c0.1,0.1,0.2,0.1,0.4,0.1c0.2,0,0.3,0,0.5-0.1l0.3,0.8c-0.3,0.2-0.7,0.2-1,0.2
			c-0.4,0-0.8-0.1-1-0.4c-0.2-0.3-0.3-0.6-0.3-1.1v-8.5l1.1-0.1v8.6C341.4,47.1,341.5,47.2,341.5,47.3z"/>
		<path fill="#56565A" d="M349.1,47.3c0.1,0.1,0.2,0.2,0.5,0.3l-0.3,0.8c-0.4-0.1-0.6-0.2-0.9-0.3c-0.2-0.2-0.4-0.4-0.5-0.8
			c-0.5,0.7-1.2,1.1-2.1,1.1c-0.7,0-1.2-0.2-1.6-0.6c-0.4-0.4-0.6-0.9-0.6-1.5c0-0.7,0.3-1.3,0.8-1.7c0.5-0.4,1.3-0.6,2.2-0.6h1.2
			v-0.6c0-0.5-0.1-0.9-0.4-1.1c-0.2-0.2-0.6-0.3-1.2-0.3c-0.5,0-1.2,0.1-1.9,0.4l-0.3-0.8c0.8-0.3,1.6-0.5,2.4-0.5
			c0.8,0,1.4,0.2,1.8,0.6c0.4,0.4,0.6,1,0.6,1.7v3.3C348.9,46.9,349,47.1,349.1,47.3z M347.8,46.4v-1.7h-1c-1.3,0-2,0.5-2,1.5
			c0,0.4,0.1,0.8,0.3,1c0.2,0.2,0.5,0.3,1,0.3C346.9,47.5,347.4,47.1,347.8,46.4z"/>
	</g>
</g>
</svg>
