<?xml version="1.0" encoding="utf-8"?>
<!-- Generator: Adobe Illustrator 17.1.0, SVG Export Plug-In . SVG Version: 6.00 Build 0)  -->
<!DOCTYPE svg PUBLIC "-//W3C//DTD SVG 1.1//EN" "http://www.w3.org/Graphics/SVG/1.1/DTD/svg11.dtd">
<svg version="1.1" id="Layer_1" xmlns="http://www.w3.org/2000/svg" xmlns:xlink="http://www.w3.org/1999/xlink" x="0px" y="0px"
	 viewBox="0 0 612 792" enable-background="new 0 0 612 792" xml:space="preserve">
<g>
	<path fill="#CCCCCC" d="M1.9,357.6L0,381c121.9,246,450.4,272.5,610.1,49.1l1.9-23.5C490.1,160.7,161.6,134.3,1.9,357.6z
		 M294.7,534.7c-77.8-6.3-135.7-74.4-129.4-152.1c6.3-77.8,74.3-135.7,152.1-129.4c77.7,6.3,135.7,74.3,129.4,152.1
		C440.5,482.9,372.4,540.9,294.7,534.7z"/>
	<path fill="#CCCCCC" d="M376.6,393.9c0,39-31.6,70.6-70.6,70.6c-39,0-70.6-31.6-70.6-70.6c0-39.1,31.6-70.6,70.6-70.6
		C345,323.2,376.6,354.8,376.6,393.9z"/>
</g>
</svg>
