<?xml version="1.0" encoding="utf-8"?>
<!-- Generator: Adobe Illustrator 17.1.0, SVG Export Plug-In . SVG Version: 6.00 Build 0)  -->
<!DOCTYPE svg PUBLIC "-//W3C//DTD SVG 1.1//EN" "http://www.w3.org/Graphics/SVG/1.1/DTD/svg11.dtd">
<svg version="1.1" id="Layer_1" xmlns="http://www.w3.org/2000/svg" xmlns:xlink="http://www.w3.org/1999/xlink" x="0px" y="0px"
	 viewBox="0 0 14.4 14.7" enable-background="new 0 0 14.4 14.7" xml:space="preserve">
<path fill="#CCCCCC" d="M11.8,9.4c-0.6,0-1.1,0.2-1.5,0.5l-5-2.6l4.9-2.6c0.4,0.3,1,0.5,1.6,0.5c1.5,0,2.6-1.2,2.6-2.6
	c0-1.5-1.2-2.6-2.6-2.6c-1.5,0-2.6,1.2-2.6,2.6c0,0,0,0.1,0,0.1l-5,2.6C3.8,5,3.2,4.8,2.6,4.8C1.2,4.8,0,5.9,0,7.4
	C0,8.9,1.2,10,2.6,10c0.7,0,1.3-0.3,1.7-0.7l4.8,2.5c0,0.1,0,0.1,0,0.2c0,1.5,1.2,2.6,2.6,2.6c1.5,0,2.6-1.2,2.6-2.6
	C14.4,10.6,13.3,9.4,11.8,9.4z"/>
</svg>
